<svg width="228" height="79" viewBox="0 0 228 79" fill="none" xmlns="http://www.w3.org/2000/svg">
<g clip-path="url(#clip0)">
<path d="M69.4 30C69.4 32.6 68.4 33.9 66.4 33.9C65.4 33.9 64.6 33.6 64 32.8C64.5 32.5 65 32 65.4 31.2C65.8 30.5 66 29.7 66 28.9C66 28.2 65.8 27.5 65.4 27C65 26.5 64.4 26.2 63.5 26.2C62.6 26.2 61.8 26.5 61.1 27.1C60.4 27.7 59.7 28.5 59 29.5C57.7 31.5 56.6 34 55.8 37.1C55 40.2 54.5 43 54.5 45.6C54.5 48.2 54.9 50 55.6 51.1C56.3 52.2 57.6 52.8 59.4 52.8C61.0626 52.8467 62.7107 52.478 64.1949 51.7271C65.6791 50.9763 66.9525 49.8671 67.9 48.5L68.9 48.9C67.5 52.4 65 54.7 61.1 56.1C59.6 56.6 58.1 56.9 56.7 56.9H56.6C53.5 56.9 51.1 56 49.7 54.5C48.3 52.9 47.6 50.3 47.6 46.7C47.6 43.1 48 39.6 49.2 36C50.6 31.8 52.6 28.7 55.3 26.6C57.4 25 59.7 24.2 62.3 24.2C65.6 24.2 67.8 25.2 68.9 27.3C69.2 28.1 69.4 28.9 69.4 30" fill="#DC662D"/>
<path fill-rule="evenodd" clip-rule="evenodd" d="M84.2 48.6H85.6C82.4 53.9 78.6 56.5 74 56.4C71.9 56.4 70.3 55.8 69.1 54.8C67.9 53.8 67.3 52 67.3 49.6C67.3127 46.304 68.1736 43.0668 69.8 40.2C71.1 37.9 72.8 36.3 75 35.3C76.1 34.8 77.3 34.5 78.5 34.5C80.4 34.5 81.8 34.9 82.5 35.6C83.2 36.4 83.5 37.4 83.5 38.6C83.5 41 82.6 43.1 80.6 44.8C78.6 46.5 76.3 47.4 73.7 47.6C73.6 48.4 73.6 49 73.6 49.3C73.6 50.8 73.9 51.7 74.4 52.2C74.9 52.7 75.7 52.9 76.6 52.9C78.2 52.9 79.6 52.5 80.7 51.8C81.8 51.1 82.9 50 84.2 48.6ZM78.3 43.3C79.6 41.8 80.2 40.2 80.2 38.3C80.2 37.3 79.8 36.8 79.1 36.8C78.1 36.9 77.1 37.8 76.1 39.6C75.1 41.4 74.4 43.4 74 45.6C74.8353 45.5283 75.6472 45.2874 76.3865 44.892C77.1257 44.4966 77.7767 43.955 78.3 43.3Z" fill="#DC662D"/>
<path d="M118.9 48.6C117.1 53.8 114.5 56.5 110.9 56.5C109.3 56.5 108 56.1 107.1 55.2C106.3 54.3 105.8 53.3 105.8 52.1C105.8 50.9 106.1 49 106.7 46.4L107.4 43.3L101.1 56.3H95.1L94.4 43.3L93.8 46C93.5 47.7 93.1 49.2 92.8 50.5C92.5 51.8 92.1 52.9 91.6 53.8C90.6 55.6 89.1 56.6 87.1 56.6C85.6 56.6 84.4 56.1 83.6 55.1C82.8 54.1 82.4 53 82.4 51.9C82.4 50.8 82.6 49.9 83.1 49.3C83.6 48.7 84.2 48.4 84.9 48.4C85.6 48.4 86.2 48.6 86.6 49C87 49.4 87.2 50 87.2 50.7C87.2 51.4 87 51.9 86.7 52.2C86.4 52.5 86 52.7 85.5 52.6C85.5 52.9 85.6 53.3 85.8 53.6C86 54 86.5 54.2 87.2 54.2C87.9 54.2 88.5 53.9 89 53.5C89.5 53 89.9 52.4 90.1 51.5C90.4 50.7 90.7 49.8 90.8 48.7C91 47.7 91.2 46.6 91.5 45.5L93.8 34.9H99.8L100.7 51.2L108.6 34.9H114.9C113.2 42.6 112.3 47 112 48.2C111.7 49.4 111.6 50.2 111.6 50.6C111.6 51.8 112.2 52.4 113.3 52.4C114.2 52.4 114.8 52.1 115.4 51.4C115.9 50.7 116.4 49.8 116.9 48.6H118.9V48.6Z" fill="#DC662D"/>
<path fill-rule="evenodd" clip-rule="evenodd" d="M122.6 52C123.1 50.7 123.5 49.2 124 47.2C121.2 46.6 119.9 44.9 119.8 42.2C119.8 38.8 121.8 36.5 125.7 35.4C127.1 35 128.9 34.8 131 34.8H137.6C136.728 38.7486 136.067 41.8294 135.589 44.0558C135.135 46.1712 134.846 47.5154 134.7 48.1C134.4 49.4 134.3 50.1 134.3 50.5C134.3 51.7 134.9 52.3 136 52.3C136.9 52.3 137.6 52 138.1 51.3C138.6 50.6 139.1 49.7 139.6 48.5H141.4C139.6 53.8 137 56.4 133.5 56.4C131.9 56.4 130.7 56 129.8 55.1C128.9 54.2 128.5 53.2 128.5 52.1C128.5 50.9 128.8 49.3 129.3 47.1C128.5 47.3 127.7 47.4 126.9 47.4C126.1 50.7 125.4 52.8 124.8 53.8C124.2 54.8 123.6 55.5 122.9 55.9C122.2 56.3 121.4 56.5 120.5 56.5C118.9 56.5 117.6 56 116.8 55.1C116 54.2 115.6 53 115.6 51.5C115.6 50 116.1 49 117.1 48.5C117.4 48.3 117.9 48.2 118.4 48.2C118.9 48.2 119.4 48.4 119.8 48.8C120.2 49.3 120.4 49.8 120.4 50.5C120.4 51.2 120.2 51.7 119.9 52C119.5 52.3 119.1 52.4 118.7 52.4C118.8 53.4 119.4 53.8 120.4 53.8C121.4 53.8 122.1 53.2 122.6 52ZM129.5 45.3L131.3 37.2L130.2 37.1C128.5 37.1 127.2 37.6 126.4 38.5C125.5 39.4 125.1 40.5 125.1 41.9C125.1 43.3 125.4 44.2 126 44.7C126.6 45.2 127.3 45.4 128.2 45.4H128.9C129.065 45.4 129.17 45.3697 129.264 45.3425C129.34 45.3202 129.41 45.3 129.5 45.3Z" fill="#DC662D"/>
<path d="M150 51.9C150 50.9 150.3 48.9 151 45.9H146.3L144.1 56.1H137.9L142.4 34.8H148.5L146.7 43.3H151.5L153.4 34.8H159.1L156.9 45.4L156.2 48.7C156 49.5 155.9 50.1 155.9 50.5C155.9 51.7 156.5 52.3 157.6 52.3C158.5 52.3 159.1 52 159.7 51.3C160.2 50.6 160.7 49.7 161.2 48.5H163C161.2 53.7 158.6 56.4 155.1 56.4C153.4 56.4 152.2 56 151.4 55.1C150.4 54.3 150 53.2 150 51.9" fill="#DC662D"/>
<path d="M190.9 48.6H189.1C188.6 49.8 188.1 50.7 187.6 51.4C187.1 52.1 186.4 52.4 185.5 52.4C184.4 52.4 183.8 51.8 183.8 50.6C183.8 50.2 183.9 49.6 184.1 48.8L184.9 45.5L187.1 34.9H184.5C183.5 35.4 182.5 36 181.7 36.5L176.5 39.6C175.6 40.1 174.6 40.6 173.6 41C173.1 40.8 172.5 40.7 171.9 40.7C171.3 40.7 170.7 40.9 170.2 41.2C169.7 41.5 169.4 42 169.4 42.7C169.4 43.4 169.6 43.8 170 44.1C170.4 44.4 170.9 44.5 171.3 44.5C171.7 44.5 172.1 44.4 172.5 44.1C172.9 44.5 173.1 45 173.1 45.7C173.1 47.6 172.6 49.3 171.7 50.7C170.8 52.1 169.7 52.8 168.5 52.8C167.3 52.8 166.7 52.2 166.7 51.1C166.7 50.6 166.7 50.2 166.8 49.9L169.9 34.9H164L161.2 48.6C161 49.5 160.9 50.3 160.9 51C160.9 52.7 161.4 54.1 162.5 55C163.5 56 165.1 56.4 167 56.4C170.1 56.4 172.5 55.3 174.3 52.9C175.8 50.9 176.6 49 176.6 47C176.6 45 176.3 43.5 175.6 42.5L180.4 39.7L179.1 45.6C178.4 48.6 178.1 50.7 178.1 51.8C178.1 53 178.5 54 179.4 54.9C180.3 55.8 181.5 56.2 183.2 56.2C186.5 56.5 189.1 53.9 190.9 48.6" fill="#DC662D"/>
<path d="M196.3 44C196.3 45.2 196.7 45.7 197.6 45.7C198.4 45.7 199.2 45.4 199.8 44.7C200.4 44 200.8 43.1 201.1 42L202.6 34.9H208.7L205.6 49.4C205.5 49.9 205.4 50.4 205.4 50.9C205.4 51.9 206 52.3 207.1 52.3C208.7 52.3 209.9 51 210.6 48.5H212.4C211.4 51.6 209.9 53.7 208.1 55.1C206.938 55.9451 205.537 56.4003 204.1 56.4C202.7 56.4 201.5 56 200.6 55.2C199.7 54.4 199.3 53.1 199.3 51.3C199.3 50.6 199.4 49.6 199.6 48.5L199.8 47.5C199.183 48.255 198.404 48.8623 197.522 49.2776C196.639 49.6929 195.675 49.9055 194.7 49.9C193.4 49.9 192.3 49.5 191.5 48.7C190.6 47.9 190.2 46.6 190.2 44.8C190.2 44.1 190.3 43.1 190.5 42L192 34.9H198.1L196.4 42.9C196.4 43.3 196.3 43.7 196.3 44" fill="#DC662D"/>
<path d="M204.4 34.5L203.5 30.6L204.2 31C203.5 29.9 203 28.6 202.6 27.1L203.5 27.6L202.3 24.5L203.1 24.4C203.1 24.4 202.4 22.2 202.4 21.9C202.4 21.6 203 22 203 22L202.4 19.8L202.8 20V17.6C202.8 17.4 202.8 17.2 202.9 17.2C203.1 17.3 203.3 17.7 203.3 17.7C203.4 16.8 203.4 15.6 204 14.9C204.1 14.8 204.3 15.1 204.3 15.1C204.9 11.6 206.2 8.39999 207.5 5.79999C207.6 7.59999 207.5 11 207.7 12.4V12.7C207.7 12.8 208 12.4 208 12.4C208 13.1 207.8 13.8 207.9 14.5C207.9 14.8 208.6 14.2 208.6 14.2L208.4 16L208.7 15.9L209.1 15.7C209.1 15.7 209 16.7 208.8 17.3C208.6 17.8 208.7 17.8 208.7 17.8L209.5 17.5C209.5 17.5 209.4 18.7 209.2 19.4C209 20.1 208.9 20.3 208.9 20.3L209.5 20C209.5 20 209.5 20.7 209.4 21.5C209.2 22.4 209 22.9 209 22.9L209.7 22.7C209.7 22.7 209.7 23.5 209.5 24.2C209.3 24.8 208.6 26 208.6 26L209.5 25.6C209.5 25.6 209.2 26.5 208.9 27.1C208.7 27.7 208 29.5 208 29.5L208.8 29C208.8 29 207.7 32.5 207.5 32.9C207.3 33.3 207.2 34.4 207.2 34.4H206.4C205.9 27.6 206.2 20 206.7 13C205.6 19.7 205.1 27.2 205.2 34.4L204.4 34.5ZM183.5 21.8C185.5 21.8 187.5 21.8 189.3 22C189.7 22 189.4 21.6 189.4 21.6C189.7 21.7 191.2 22.4 191.5 22.5C191.9 22.6 191.8 22.1 191.8 22.1C192.1 22.2 193.3 22.9 193.7 23.3C194 23.6 193.9 22.8 193.9 22.8C194 22.8 195.2 23.6 195.6 24C195.7 24.1 195.9 23.9 195.8 23.5C195.7 23 196.9 24.8 197.3 25.1C197.6 25.2 197.6 24.2 197.6 24.2C197.7 24.2 198.5 25.2 199 26.2C199.2 26.4 199.4 25.7 199.5 25.7C200 26.1 200.5 28.5 200.7 27C200.9 27.3 201 28.2 201.2 28.5C201.4 28.7 201.6 28.3 201.6 28.3C201.7 28.5 201.9 29.6 202 29.7C202.1 29.7 202.2 29.6 202.3 29.3C202.5 29.7 202.6 31 202.8 31.4C202.9 31.4 203 31.3 203.1 31C203.1 30.6 203.6 33.3 203.7 34.6H203.3C200.6 30 195.7 25.7 190.4 23.6C196.7 26.8 200.4 31.8 202 34.6H200.5C199.7 34.4 199 34 199 34C199.5 33.7 199.2 33.7 198.7 33.5C198.3 33.3 198 33.2 198 33.2C198 33.2 198.6 33.2 198.4 33C198.1 32.7 196.5 32.3 196.2 32C196.2 31.9 197 31.9 196.5 31.5C196.2 31.3 194.8 31.1 194.6 30.8C194.6 30.8 195.5 30.5 195.2 30.3C194.9 30 193.2 29.6 192.8 29.3C192.8 29.3 193.8 29 193.3 28.8C192.5 28.5 191.5 28 191.5 28C191.5 28 192.2 27.7 192.1 27.7C191.8 27.4 190.4 26.9 190.1 26.6C190.1 26.6 190.8 26.4 190.6 26.2C190.3 25.9 188.8 25.6 188.5 25.3C188.5 25.3 189.2 25 188.9 24.9C188.1 24.3 187.3 23.8 186.3 23.5C183.8 22.5 183.2 22.2 183.2 22.2L183.5 21.8V21.8Z" fill="#75B72B"/>
<path d="M226.8 22.3C224.8 22.3 222.8 22.3 221 22.5C220.6 22.5 220.9 22.1 220.9 22.1C220.6 22.2 219.1 22.9 218.8 23C218.4 23.1 218.5 22.6 218.5 22.6C218.2 22.7 217 23.4 216.6 23.8C216.3 24.1 216.4 23.3 216.4 23.3C216.3 23.3 215.1 24.1 214.7 24.5C214.6 24.6 214.4 24.4 214.5 24C214.6 23.5 213.4 25.4 213 25.6C212.7 25.7 212.7 24.7 212.7 24.7C212.6 24.7 211.8 25.7 211.3 26.7C211.1 26.9 210.9 26.2 210.8 26.2C210.3 26.6 209.8 29 209.6 27.5C209.4 27.8 209.3 28.7 209.1 29C208.9 29.2 208.7 28.8 208.7 28.8C208.6 29 208.4 30.1 208.3 30.2C208.2 30.2 208.1 30.1 208 29.8C207.8 30.2 207.6 31.4 207.5 31.9C207.4 31.9 207.3 31.9 207.2 31.6C207.2 31.2 206.9 33.5 206.8 34.6H207.4C210.2 30.1 214.8 26.3 220 24.2C212.9 27.9 209.6 32.2 208.2 34.6H208.9C208.7 35.4 208.5 36.4 208.5 36.4C208.5 36.4 210.8 35.2 211.3 34.5C211.7 34 211.1 34.2 211.6 34C211.9 33.8 212.3 33.7 212.3 33.7C212.3 33.7 211.7 33.7 211.9 33.5C212.2 33.2 213.8 32.8 214.1 32.5C214.1 32.4 213.3 32.4 213.8 32C214.1 31.8 215.5 31.6 215.7 31.3C215.7 31.3 214.8 31 215.1 30.8C215.4 30.5 217.1 30.1 217.5 29.8C217.5 29.8 216.5 29.5 217 29.3C217.8 29 218.8 28.5 218.8 28.5C218.8 28.5 218.1 28.2 218.2 28.2C218.5 27.9 219.9 27.4 220.2 27.2C220.2 27.2 219.5 27 219.7 26.8C220 26.5 221.5 26.2 221.8 25.9C221.8 25.9 221.1 25.6 221.4 25.5C222.2 24.9 223 24.4 224 24.1C226.5 23.1 227.1 22.9 227.1 22.9L226.8 22.3V22.3Z" fill="#75B72B"/>
<path d="M223.3 38.9C222.4 38 221.5 37.2 220.5 36.5C220.3 36.3 220.6 36.3 220.6 36.3C220.4 36.2 219.4 35.9 219.3 35.8C219.1 35.7 219.3 35.5 219.3 35.5C219.1 35.4 218.3 35.2 217.9 35.2C217.6 35.2 218 34.9 218 34.9C218 34.9 217 34.7 216.7 34.8C216.6 34.8 216.6 34.6 216.8 34.5C217.1 34.3 215.7 34.6 215.4 34.5C215.2 34.5 215.7 34 215.7 34C215.6 34 214.9 34 214.2 34.3C214 34.3 214.2 33.9 214.2 33.9C213.8 33.9 212.5 34.8 213.1 33.9C212.9 33.9 212.4 34.3 212.2 34.4C212 34.4 212.1 34.1 212.1 34.1C212 34.1 211.4 34.6 211.3 34.6V34.3C211 34.4 210.4 35 210.2 35.1V34.8C210.4 34.6 209 35.8 208.5 36.2V36.5C211.9 35.4 215.8 35.7 219.2 37C214.3 35.6 209.9 36.4 208.3 36.9C208.4 37.1 208.7 37.6 208.7 37.6C208.7 37.6 210.1 37.9 210.8 38C210.5 37.7 210.8 37.8 211.1 37.9C211.4 38 211.6 38.1 211.6 38C211.6 38 211.3 37.7 211.5 37.7C211.8 37.7 212.6 38.2 212.9 38.2C213 38.2 212.6 37.8 213 37.9C213.2 37.9 214 38.4 214.2 38.4C214.2 38.4 213.9 37.9 214.2 37.9C214.5 37.9 215.5 38.4 215.7 38.5C215.7 38.5 215.4 37.9 215.7 38.1C216.2 38.3 216.9 38.5 216.9 38.5C216.9 38.5 216.7 38.1 216.8 38.1C217.1 38.1 217.9 38.5 218.2 38.5C218.2 38.5 217.9 38.1 218.2 38.1C218.5 38.1 219.3 38.6 219.6 38.6C219.6 38.6 219.4 38.2 219.6 38.2C220.2 38.3 220.8 38.4 221.4 38.6C223 39.3 223.3 39.3 223.3 39.3V38.9V38.9Z" fill="#75B72B"/>
<path d="M44.8 46.5C44.8 42.8 45.4 39.1 46.6 35.4C47.6 32.5 48.8 30 50.4 28C47.4 25.1 43.3 23.4 39.2 23.5C30.5 23.2 23 30.4 22.9 39.3C22.8503 42.0815 23.5178 44.8288 24.838 47.2775C26.1582 49.7261 28.0868 51.7936 30.4379 53.2806C32.789 54.7676 35.4834 55.6241 38.2616 55.7677C41.0398 55.9112 43.8082 55.3369 46.3 54.1C45.4 52.1 44.8 49.6 44.8 46.5V46.5ZM64.5 47.4C64.5 47.5 64.5 47.4 64.5 47.4Z" fill="#F8AD3B"/>
<path d="M63.2 57.3C62.6 57.6 62.1 57.8 61.5 58C59.8 58.6 58.1 58.9 56.4 58.9H56.3C52.7 58.9 50 57.9 48.1 56C45.4 57.4 42.3 58.2 38.9 58.2C28.6 58 20.4 49.5 20.6 39.5C20.5 28.7 29.4 20.8 39.2 20.8C44.2 20.8 48.8 22.8 52.2 26C52.6 25.6 53 25.3 53.4 25C55.8 23.1 58.6 22.2 61.7 22.2C62.2 22.2 62.7 22.2 63.2 22.3C63.3995 21.0845 63.8491 19.9236 64.5204 18.8908C65.1917 17.858 66.0701 16.9758 67.1 16.3C67.5 16 68 15.8 68.4 15.4C69.2 14.7 69.1 13.9 68.2 13.5C67.7 13.3 67.2 13.3 66.7 13.2C61.6 13.3 57.9 14.2 55.7 17.4C55.2 18.3 54.9 19.4 54.3 20.2C54.1 20.5 53.3 20.8 52.9 20.7C52.1 20.6 52.1 19.9 52.2 19.2C52.3 18.9 52.4 18.6 52.6 18.3C53 17.2 53.7 16.2 53.9 15.1C54.4 12.7 54.2 10.3 52.6 8.3C52.4 8 51.9 7.8 51.5 7.6C51.3 8 51.1 8.4 51 8.7C50.8 11.1 50 13.1 47.5 14C46.9057 14.2308 46.3717 14.5938 45.9386 15.0616C45.5054 15.5294 45.1845 16.0897 45 16.7C44.9 17.1 44.4 17.3 44.1 17.6C43.8 17.2 43.3 16.9 43.2 16.4C42.9 15 43.5 13.8 44.1 12.6C46.4 9.1 44.8 3.4 42 1C41.6 0.7 41.1 0.5 40.4 0V3.8C40.5 6 39.7 7.8 38.2 9.3L36.4 11.1C35.6907 11.7392 35.1882 12.5754 34.9566 13.5016C34.725 14.4279 34.7749 15.4022 35.1 16.3C35.2 16.6 35.1 17 35.1 17.4L34.7 17.5C34.5 17.2 34.4 16.8 34.2 16.5C33.7 15.5 33.4 14.3 32.6 13.6C30.9 12 30 10.3 30.5 8C30.6 7.7 30.4 7.2 30.2 7.1C29.9 7 29.4 7.1 29.2 7.3C27.4 8.5 26.2 12.1 26.6 14.2C26.9 15.7 27.6 17.1 28.6 18.3C28.9 18.6 28.8 19.2 28.9 19.7C28.4 19.6 27.7 19.8 27.4 19.5C26.9 19.2 26.5 18.6 26.3 18C25.4 15.5 23.7 14.2 21.1 13.9C19.7 13.7 18.2 13.4 16.8 12.8C14.9 12.1 13.6 10.6 12.6 8.9C12.3 8.5 11.7 8.2 11.2 7.9C10.9 8.3 10.5 8.7 10.3 9.2C9.40001 11.7 10 14.1 11 16.4C12.6 19.9 15.3 22.3 18.7 23.9C19.3 24.2 19.9 24.6 20.3 25.1C20.5 25.4 20.5 26.1 20.4 26.5C20.3 26.8 19.6 26.9 19.2 26.9C18.7 26.9 18.2 26.6 17.7 26.4C15.7 25.2 13.4 24.8 11.1 25.2C9.90001 25.4 8.80001 26.2 7.60001 26.8C7.40001 26.9 7.30001 27.4 7.20001 27.7C7.50001 27.8 7.80001 28 8.10001 28.1C8.30001 28.2 8.60001 28.1 8.80001 28.1C10.9 28.4 12.7 29.1 13.6 31.3C14.2 32.7 15 34.1 16.7 34.6C16.9 34.7 17.1 35.1 17.3 35.3C17 35.4 16.7 35.7 16.5 35.7C16.1 35.7 15.7 35.6 15.3 35.5C13.8 35.1 12.5 35.5 11.3 36.5C10.5 37.2 9.80001 38 9.00001 38.7C7.70001 40 6.20001 40.9 4.20001 40.9C3.10001 40.9 2.10001 40.8 1.00001 40.9C0.10001 40.9 -0.19999 41.4 0.30001 42.2C0.40001 42.5 0.70001 42.7 0.90001 42.9C3.60001 45.8 9.00001 46.7 12.6 44.9C13.4 44.5 14.2 44.1 15 43.9C15.6 43.8 16.2 43.9 16.8 44.1C17 44.2 17.2 44.6 17.3 44.9C17 45 16.8 45.2 16.5 45.2C14.9 45.3 13.6 45.9 12.5 47.1C11.2 48.5 9.60001 48.9 7.70001 48.6C7.30001 48.5 6.90001 48.7 6.40001 48.8C6.50001 49.2 6.60001 49.8 6.90001 50.1C9.20001 52.9 13.9 53.4 16.8 51.2C17.2 50.9 17.5 50.5 17.9 50.4C18.3 50.3 18.9 50.4 19.3 50.5C19.3 50.9 19.4 51.6 19.1 51.8C18.5 52.3 17.7 52.7 17 53C15.1 53.8 13.8 55.1 13.4 57.3C13.2 58.5 13.1 59.6 12.8 60.7C12.1 63.3 10.5 65.2 8.30001 66.5C7.80001 66.8 7.50001 67.4 7.30001 67.9C7.20001 68.1 7.80001 68.7 8.20001 68.8C10.2 69.4 12.3 69.3 14.2 68.7C18.4 67.4 21.1 64.5 23.1 60.7C23.3548 59.9893 23.8055 59.3653 24.4 58.9C24.8 58.6 25.6 58.6 26 58.9C26.3 59.1 26.3 59.9 26.3 60.4C26.3 60.8 25.9 61.1 25.7 61.5C24.2 64.5 23.8 67.6 25.5 70.7C25.8 71.2 26.4 71.5 26.9 71.9C27.1 71.3 27.4 70.8 27.4 70.2C27.4 68 28.6 66.5 30.5 65.5C31.8 64.8 32.8 63.9 33.4 62.5C33.5 62.2 33.9 62 34.2 61.7C34.5 62 35 62.4 35 62.7C34.9 63.7 34.9 64.8 34.5 65.8C32.5 70.1 32.8 74 35.7 77.8C36.2 78.5 36.8 79.4 37.8 79C38.2 78.8 38.1 77.6 38.1 76.9C37.9 74.4 38.4 72.1 40.4 70.3C41.2 69.6 41.9 68.8 42.6 68C43.7 66.6 44.1 65.1 43.4 63.4C43.3 63.1 43.3 62.7 43.3 62.4C43.4 62.3 43.6 62.3 43.7 62.2C44 62.7 44.4 63.2 44.6 63.8C45.1 65.3 45.8 66.5 47 67.6C47.4 68 47.8 68.6 47.9 69.1C48 69.9 47.9 70.7 47.9 71.6C47.9 72 48.1 72.4 48.2 72.8C48.6 72.6 49.1 72.5 49.5 72.3L49.8 72C52 69.6 52.4 65.4 50.7 62.6C50.4 62.1 49.9 61.7 49.6 61.2C49.4 60.9 49.4 60.4 49.6 60.2C49.8 60 50.4 59.9 50.6 60C51.1 60.4 51.8 60.9 52 61.5C52.9 63.8 54.3 65.4 56.8 65.8C57.7 66 58.7 66 59.6 66.2C62.3 66.9 64.5 68.5 66 70.9C66.3 71.4 66.9 71.6 67.3 71.9C67.6 71.4 68.3 70.9 68.3 70.4C68.4 68.8 68.6 67.2 68.3 65.7C67.5 61.9 65.8 59.3 63.2 57.3" fill="#F8AD3B"/>
</g>
<defs>
<clipPath id="clip0">
<rect width="227.2" height="78.6" fill="white"/>
</clipPath>
</defs>
</svg>